<svg width="20" height="20" viewBox="0 0 20 20" fill="none" xmlns="http://www.w3.org/2000/svg">
<path d="M5.80892 11.5377C5.73269 11.5691 5.66541 11.6188 5.61306 11.6825C5.56071 11.7462 5.52493 11.8219 5.50889 11.9027C5.49286 11.9836 5.49707 12.0672 5.52115 12.146C5.54523 12.2249 5.58844 12.2965 5.64692 12.3547L9.64692 16.3547C9.69337 16.4012 9.74854 16.4382 9.80929 16.4634C9.87003 16.4886 9.93515 16.5015 10.0009 16.5015C10.0667 16.5015 10.1318 16.4886 10.1926 16.4634C10.2533 16.4382 10.3085 16.4012 10.3549 16.3547L14.3549 12.3547C14.4488 12.2608 14.5016 12.1334 14.5016 12.0007C14.5016 11.8679 14.4488 11.7405 14.3549 11.6467C14.261 11.5528 14.1337 11.5 14.0009 11.5C13.8681 11.5 13.7408 11.5528 13.6469 11.6467L10.5009 14.7937V4.00066C10.5009 3.86805 10.4482 3.74087 10.3545 3.6471C10.2607 3.55333 10.1335 3.50066 10.0009 3.50066C9.86831 3.50066 9.74114 3.55333 9.64737 3.6471C9.5536 3.74087 9.50092 3.86805 9.50092 4.00066V14.7937L6.35492 11.6467C6.28497 11.5764 6.19572 11.5285 6.0985 11.5091C6.00128 11.4897 5.90048 11.4996 5.80892 11.5377Z" fill="#333030"/>
</svg>
