<svg width="20" height="20" viewBox="0 0 20 20" fill="none" xmlns="http://www.w3.org/2000/svg">
<path d="M8.46389 5.80958C8.43249 5.73335 8.38272 5.66606 8.31903 5.61371C8.25534 5.56137 8.17969 5.52558 8.09881 5.50955C8.01794 5.49351 7.93436 5.49772 7.85552 5.52181C7.77667 5.54589 7.705 5.58909 7.64688 5.64758L3.64688 9.64758C3.60032 9.69402 3.56338 9.7492 3.53817 9.80994C3.51297 9.87069 3.49999 9.93581 3.49999 10.0016C3.49999 10.0673 3.51297 10.1325 3.53817 10.1932C3.56338 10.254 3.60032 10.3091 3.64688 10.3556L7.64688 14.3556C7.74077 14.4495 7.86811 14.5022 8.00089 14.5022C8.13366 14.5022 8.261 14.4495 8.35489 14.3556C8.44877 14.2617 8.50152 14.1344 8.50152 14.0016C8.50152 13.8688 8.44877 13.7415 8.35489 13.6476L5.20788 10.5016H16.0009C16.1335 10.5016 16.2607 10.4489 16.3544 10.3551C16.4482 10.2614 16.5009 10.1342 16.5009 10.0016C16.5009 9.86897 16.4482 9.74179 16.3544 9.64802C16.2607 9.55426 16.1335 9.50158 16.0009 9.50158H5.20788L8.35489 6.35558C8.42514 6.28563 8.47301 6.19637 8.49241 6.09915C8.51182 6.00193 8.50189 5.90114 8.46389 5.80958Z" fill="#333030"/>
</svg>
