<svg width="20" height="20" viewBox="0 0 20 20" fill="none" xmlns="http://www.w3.org/2000/svg">
<path d="M5.80892 8.46456C5.73269 8.43316 5.66541 8.3834 5.61306 8.3197C5.56071 8.25601 5.52493 8.18036 5.50889 8.09949C5.49286 8.01862 5.49707 7.93504 5.52115 7.85619C5.54523 7.77734 5.58844 7.70567 5.64692 7.64756L9.64692 3.64756C9.69337 3.60099 9.74854 3.56405 9.80929 3.53884C9.87003 3.51364 9.93515 3.50066 10.0009 3.50066C10.0667 3.50066 10.1318 3.51364 10.1926 3.53884C10.2533 3.56405 10.3085 3.60099 10.3549 3.64756L14.3549 7.64756C14.4488 7.74144 14.5016 7.86878 14.5016 8.00156C14.5016 8.13433 14.4488 8.26167 14.3549 8.35556C14.261 8.44944 14.1337 8.50219 14.0009 8.50219C13.8681 8.50219 13.7408 8.44944 13.6469 8.35556L10.5009 5.20856V16.0016C10.5009 16.1342 10.4482 16.2613 10.3545 16.3551C10.2607 16.4489 10.1335 16.5016 10.0009 16.5016C9.86831 16.5016 9.74114 16.4489 9.64737 16.3551C9.5536 16.2613 9.50092 16.1342 9.50092 16.0016V5.20856L6.35492 8.35556C6.28497 8.42581 6.19572 8.47368 6.0985 8.49309C6.00128 8.51249 5.90048 8.50256 5.80892 8.46456Z" fill="#333030"/>
</svg>
