<svg width="44" height="44" viewBox="0 0 44 44" fill="none" xmlns="http://www.w3.org/2000/svg">
<path fill-rule="evenodd" clip-rule="evenodd" d="M16.9416 14H13.7816L13.0116 25.6C12.965 26.2838 13.0594 26.9699 13.2891 27.6156C13.5188 28.2614 13.8788 28.853 14.3468 29.3538C14.8147 29.8546 15.3806 30.2538 16.0094 30.5266C16.6381 30.7995 17.3162 30.9402 18.0016 30.94H25.3816C26.0661 30.9401 26.7433 30.7997 27.3713 30.5274C27.9993 30.2552 28.5647 29.8569 29.0325 29.3572C29.5003 28.8575 29.8605 28.2671 30.0909 27.6226C30.3212 26.978 30.4167 26.293 30.3716 25.61L29.5916 14H23.2666H16.9416ZM14.7216 15H16.9416V15.63C16.9416 16.2538 17.0644 16.8714 17.3031 17.4477C17.5419 18.024 17.8917 18.5477 18.3328 18.9888C18.7739 19.4298 19.2975 19.7797 19.8738 20.0184C20.4501 20.2571 21.0678 20.38 21.6916 20.38C22.3154 20.38 22.933 20.2571 23.5093 20.0184C24.0856 19.7797 24.6093 19.4298 25.0503 18.9888C25.4914 18.5477 25.8413 18.024 26.08 17.4477C26.3187 16.8714 26.4416 16.2538 26.4416 15.63V15H28.6616L29.3816 25.67C29.4186 26.2175 29.3426 26.7669 29.1582 27.2838C28.9739 27.8007 28.6851 28.2741 28.3099 28.6746C27.9347 29.0752 27.4811 29.3942 26.9773 29.6119C26.4736 29.8296 25.9304 29.9413 25.3816 29.94H18.0016C17.4536 29.9399 16.9115 29.8272 16.4089 29.6089C15.9063 29.3906 15.4539 29.0713 15.0798 28.671C14.7057 28.2706 14.4178 27.7976 14.2341 27.2814C14.0503 26.7652 13.9746 26.2167 14.0116 25.67L14.7216 15ZM17.9416 15H25.4416V15.63C25.4416 16.6246 25.0465 17.5784 24.3432 18.2816C23.64 18.9849 22.6861 19.38 21.6916 19.38C20.697 19.38 19.7432 18.9849 19.0399 18.2816C18.3367 17.5784 17.9416 16.6246 17.9416 15.63V15Z" fill="#121212"/>
</svg>
