<svg width="44" height="44" viewBox="0 0 44 44" fill="none" xmlns="http://www.w3.org/2000/svg">
<path fill-rule="evenodd" clip-rule="evenodd" d="M21.6916 8.69C20.4318 8.69 19.2236 9.19045 18.3328 10.0812C17.442 10.972 16.9416 12.1802 16.9416 13.44V14H13.7816L13.0116 25.6C12.965 26.2838 13.0594 26.9699 13.2891 27.6156C13.5188 28.2614 13.8788 28.853 14.3468 29.3538C14.8147 29.8546 15.3806 30.2538 16.0094 30.5266C16.6381 30.7995 17.3162 30.9402 18.0016 30.94H25.3816C26.0661 30.9401 26.7433 30.7997 27.3713 30.5274C27.9993 30.2552 28.5647 29.8569 29.0325 29.3572C29.5003 28.8575 29.8605 28.2671 30.0909 27.6226C30.3212 26.978 30.4167 26.293 30.3716 25.61L29.6016 14.01H26.4416V13.44C26.4416 12.8162 26.3187 12.1986 26.08 11.6223C25.8413 11.046 25.4914 10.5223 25.0503 10.0812C24.6093 9.64017 24.0856 9.29028 23.5093 9.05157C22.933 8.81286 22.3154 8.69 21.6916 8.69ZM25.4416 13.44V14H17.9416V13.44C17.9416 12.4454 18.3367 11.4916 19.0399 10.7884C19.7432 10.0851 20.697 9.69 21.6916 9.69C22.6861 9.69 23.64 10.0851 24.3432 10.7884C25.0465 11.4916 25.4416 12.4454 25.4416 13.44ZM25.4416 15H17.9416V15.56C17.9416 16.5546 18.3367 17.5084 19.0399 18.2117C19.7432 18.9149 20.697 19.31 21.6916 19.31C22.6861 19.31 23.64 18.9149 24.3432 18.2117C25.0465 17.5084 25.4416 16.5546 25.4416 15.56V15ZM16.9416 15.56V15H14.7216L14.0016 25.67C13.9645 26.2176 14.0406 26.7669 14.2249 27.2838C14.4093 27.8007 14.698 28.2741 15.0732 28.6746C15.4484 29.0752 15.902 29.3942 16.4058 29.6119C16.9096 29.8296 17.4528 29.9413 18.0016 29.94H25.3816C25.9295 29.9399 26.4716 29.8272 26.9742 29.6089C27.4768 29.3906 27.9292 29.0714 28.3033 28.671C28.6774 28.2706 28.9653 27.7976 29.1491 27.2814C29.3328 26.7652 29.4086 26.2167 29.3716 25.67L28.6616 15H26.4416V15.56C26.4416 16.8198 25.9411 18.028 25.0503 18.9188C24.1595 19.8096 22.9514 20.31 21.6916 20.31C20.4318 20.31 19.2236 19.8096 18.3328 18.9188C17.442 18.028 16.9416 16.8198 16.9416 15.56Z" fill="#121212"/>
<circle cx="30.5" cy="27.5" r="8.5" fill="#121212"/>
<path d="M32.6691 29.2H31.7791V31H31.0891V29.2H28.2091V28.73L30.9991 24.62H31.7791V28.62H32.6691V29.2ZM31.0891 28.62V26.64C31.0891 26.3867 31.1057 25.9867 31.1391 25.44H31.0991C30.9657 25.68 30.8624 25.8567 30.7891 25.97L30.5791 26.32L28.9891 28.62H31.0891Z" fill="white"/>
</svg>
