<svg width="20" height="20" viewBox="0 0 20 20" fill="none" xmlns="http://www.w3.org/2000/svg">
<path d="M13.94 3.94L10 7.878L6.06 3.938C5.7786 3.65687 5.39706 3.49904 4.99929 3.49923C4.60153 3.49941 4.22013 3.6576 3.939 3.939C3.65787 4.22039 3.50004 4.60194 3.50023 4.99971C3.50041 5.39747 3.65861 5.77887 3.94 6.06L7.88 10L3.94 13.94C3.8008 14.0792 3.69038 14.2445 3.61504 14.4263C3.53971 14.6082 3.50093 14.8031 3.50093 15C3.50093 15.1969 3.53971 15.3918 3.61504 15.5737C3.69038 15.7555 3.8008 15.9208 3.94 16.06C4.0792 16.1992 4.24446 16.3096 4.42633 16.385C4.60821 16.4603 4.80314 16.4991 5 16.4991C5.19686 16.4991 5.39179 16.4603 5.57367 16.385C5.75554 16.3096 5.9208 16.1992 6.06 16.06L10 12.12L13.94 16.06C14.0791 16.1994 14.2443 16.3101 14.4262 16.3856C14.6081 16.4611 14.8031 16.4999 15 16.4999C15.1969 16.4999 15.3919 16.4611 15.5738 16.3856C15.7557 16.3101 15.9209 16.1994 16.06 16.06C16.1992 15.9208 16.3096 15.7555 16.385 15.5737C16.4603 15.3918 16.4991 15.1969 16.4991 15C16.4991 14.8031 16.4603 14.6082 16.385 14.4263C16.3096 14.2444 16.1992 14.0792 16.06 13.94L12.122 10L16.062 6.06C16.3431 5.77874 16.501 5.39732 16.5009 4.99965C16.5008 4.60197 16.3428 4.22063 16.0615 3.9395C15.7802 3.65837 15.3988 3.50049 15.0011 3.50058C14.6035 3.50067 14.2221 3.65874 13.941 3.94H13.94Z" fill="#DE3618" stroke="white"/>
</svg>
