<svg width="20" height="20" viewBox="0 0 20 20" fill="none" xmlns="http://www.w3.org/2000/svg">
<path d="M16.63 2.97999C16.5293 2.87669 16.4075 2.79639 16.2728 2.7446C16.1382 2.69282 15.994 2.67078 15.85 2.67999H15.82L15.75 2.68999L15.5 2.71999C14.2026 2.83307 12.9112 3.00659 11.63 3.23999C10.53 3.43999 9.32 3.71999 8.25 4.06999C7.23902 4.35601 6.3035 4.86133 5.51 5.54999C4.44208 6.61758 3.81279 8.04647 3.74616 9.55503C3.67952 11.0636 4.18037 12.5424 5.15 13.7L3.53 15.3C3.44872 15.3962 3.40675 15.5196 3.41248 15.6454C3.41822 15.7712 3.47123 15.8903 3.56093 15.9787C3.65062 16.0671 3.77039 16.1184 3.89629 16.1224C4.02219 16.1263 4.14494 16.0826 4.24 16L5.85 14.4C7.00465 15.3905 8.49054 15.9088 10.0107 15.8513C11.5309 15.7938 12.9734 15.1648 14.05 14.09C14.7387 13.2965 15.244 12.361 15.53 11.35C15.89 10.28 16.16 9.07999 16.36 7.95999C16.59 6.68122 16.7669 5.39344 16.89 4.09999L16.91 3.83999L16.92 3.76999V3.74999C16.9305 3.60678 16.91 3.46299 16.86 3.32839C16.8099 3.1938 16.7315 3.07156 16.63 2.96999V2.97999ZM14.91 3.77999L15.08 3.75999L10.19 8.65999V4.55999C11.95 4.14999 13.8 3.89999 14.91 3.77999ZM10.45 9.80999H14.95C14.74 10.61 14.5 11.37 14.21 12.01H8.24L10.45 9.80999ZM9.7 4.67999V9.13999L7.5 11.35V5.42999C8.14 5.12999 8.9 4.88999 9.7 4.67999ZM6.22 6.25999C6.42 6.05999 6.69 5.85999 7 5.68999V11.84L5.86 13C5.07868 12.0316 4.68318 10.8085 4.74964 9.56597C4.81611 8.32347 5.33983 7.14948 6.22 6.26999V6.25999ZM6.56 13.7L7.75 12.52H13.97C13.77 12.87 13.57 13.17 13.35 13.39C12.4604 14.2823 11.2689 14.809 10.0102 14.8664C8.75158 14.9238 7.51707 14.5077 6.55 13.7H6.56ZM15.06 9.29999H10.96L15.86 4.39999L15.83 4.69999C15.6639 6.24647 15.4102 7.78227 15.07 9.29999H15.06Z" fill="black"/>
</svg>
