<svg width="20" height="20" viewBox="0 0 20 20" fill="none" xmlns="http://www.w3.org/2000/svg">
<path d="M16.136 6.979L16.139 6.975C16.3981 6.67331 16.5268 6.28105 16.4967 5.88451C16.4666 5.48796 16.2802 5.11961 15.9785 4.8605C15.8291 4.7322 15.6559 4.63457 15.4688 4.5732C15.2817 4.51183 15.0844 4.48792 14.888 4.50282C14.4915 4.53292 14.1231 4.71931 13.864 5.021L7.919 11.798L6.061 9.939C5.92173 9.79973 5.7564 9.68926 5.57444 9.61389C5.39248 9.53852 5.19745 9.49972 5.0005 9.49972C4.80355 9.49972 4.60852 9.53852 4.42656 9.61389C4.2446 9.68926 4.07927 9.79973 3.94 9.939C3.80073 10.0783 3.69026 10.2436 3.61489 10.4256C3.53952 10.6075 3.50072 10.8025 3.50072 10.9995C3.50072 11.1965 3.53952 11.3915 3.61489 11.5734C3.69026 11.7554 3.80073 11.9207 3.94 12.06L6.939 15.06C7.228 15.35 7.614 15.5 8.039 15.499H8.058C8.26424 15.491 8.46661 15.4405 8.65245 15.3507C8.83828 15.2608 9.00358 15.1336 9.138 14.977L16.136 6.979Z" fill="#108043" stroke="white"/>
</svg>
