<svg width="20" height="20" viewBox="0 0 20 20" fill="none" xmlns="http://www.w3.org/2000/svg">
<path d="M17.6104 5.01314C17.4818 4.98306 17.3465 5.00509 17.2341 5.07442C17.1216 5.14374 17.0412 5.25472 17.0104 5.38314L16.5804 7.10314L16.5404 7.12314L16.5104 7.13314L16.4804 7.15314L16.4504 7.17314L16.4204 7.18314L16.3904 7.20314L16.3604 7.22314L16.3304 7.23314L16.3104 7.24314L16.2804 7.26314L16.2504 7.27314L16.2204 7.28314L16.2004 7.29314L16.1704 7.30314L16.1404 7.31314L16.1204 7.32314L16.0904 7.33314L16.0704 7.34314L16.0504 7.35314H16.0204L16.0004 7.36314H15.9804L15.9504 7.37314H15.9304L15.9104 7.38314H15.8904L15.8604 7.39314H15.5604L15.5404 7.38314H15.5204L15.4904 7.36314H15.4604L15.4404 7.34314H15.4204L15.3904 7.33314L15.3704 7.32314L15.3404 7.31314L15.3204 7.30314L15.2904 7.29314L15.2604 7.28314L15.2404 7.26314H15.2104L15.1804 7.24314L15.1504 7.22314L15.1204 7.21314L15.1004 7.19314L15.0704 7.18314L15.0404 7.16314L15.0104 7.15314L14.9804 7.13314L14.9504 7.11314H14.9304L14.9004 7.09314L14.8704 7.07314L14.8404 7.06314L14.8104 7.04314L14.7104 6.98314L14.6104 6.92314L14.5804 6.90314L14.5404 6.88314L14.5104 6.86314L14.4704 6.84314L14.4404 6.81314L14.4004 6.79314L14.3704 6.77314L14.3304 6.75314L14.2904 6.73314L14.2604 6.71314L14.2204 6.69314L14.1804 6.67314L14.1504 6.66314L14.1104 6.64314L14.0704 6.62314L14.0304 6.60314L13.9904 6.59314L13.9504 6.57314L13.9104 6.55314L13.8704 6.54314L13.8304 6.52314L13.7904 6.51314L13.7504 6.49314L13.7104 6.48314L13.6604 6.47314L13.6204 6.46314L13.5804 6.45314L13.5304 6.44314L13.4904 6.43314L13.4504 6.42314H13.4004L13.3604 6.41314L13.3104 6.40314H13.1704L13.1304 6.39314H12.9504L12.9104 6.40314H12.8604L12.8204 6.41314L12.7704 6.42314L12.7304 6.43314L12.6804 6.44314L12.6404 6.45314L12.6004 6.46314L12.5504 6.47314L12.5104 6.49314L12.4904 6.50314L12.4504 6.52314L12.4104 6.53314L12.3704 6.55314L12.3204 6.56314L12.2804 6.58314L12.2404 6.60314L12.2004 6.61314L12.1704 6.63314L12.1304 6.65314L12.0904 6.67314L12.0504 6.69314L12.0104 6.71314L11.9804 6.73314L11.9404 6.75314L11.9004 6.77314L11.8704 6.79314L11.8304 6.81314L11.8004 6.83314L11.7604 6.85314L11.7304 6.87314L11.6904 6.89314L11.4604 7.03314L11.4304 7.05314L11.3904 7.07314L11.3604 7.09314L11.3304 7.11314L11.3004 7.12314L11.2704 7.14314L11.2404 7.16314L11.2104 7.17314L11.1804 7.19314L11.1504 7.20314L11.1204 7.22314L11.1004 7.23314L11.0704 7.25314L11.0404 7.26314L11.0104 7.27314L10.9904 7.28314L10.9604 7.29314L10.9304 7.30314L10.9104 7.31314L10.8804 7.32314L10.8604 7.33314L10.8304 7.34314H10.8104L10.7804 7.35314L10.7604 7.36314H10.7404L10.7204 7.37314H10.6704L10.6504 7.38314H10.3504L10.3304 7.37314H10.2904L10.2704 7.36314L10.2404 7.35314H10.2204L10.2004 7.33314H10.1704L10.1504 7.32314L10.1204 7.31314L10.1004 7.30314L10.0704 7.29314L10.0404 7.28314L10.0204 7.26314H9.99036L9.96036 7.24314L9.93036 7.22314L9.90036 7.21314L9.87036 7.19314L9.84036 7.18314L9.82036 7.16314L9.79036 7.15314L9.76036 7.13314L9.72036 7.11314L9.69036 7.09314L9.66036 7.08314L9.63036 7.06314L9.60036 7.04314L9.57036 7.02314L9.37036 6.90314L9.33036 6.88314L9.30036 6.86314L9.26036 6.84314L9.23036 6.82314L9.19036 6.80314L9.16036 6.78314L9.12036 6.76314L9.08036 6.74314L9.05036 6.72314L9.01036 6.70314L8.97036 6.68314L8.94036 6.66314L8.90036 6.64314L8.86036 6.62314L8.82036 6.61314L8.78036 6.59314L8.74036 6.57314L8.70036 6.55314L8.66036 6.54314L8.62036 6.52314L8.58036 6.51314L8.54036 6.50314H8.49036L8.44036 6.48314L8.40036 6.47314L8.36036 6.46314L8.31036 6.45314L8.27036 6.44314L8.23036 6.43314H8.19036L8.15036 6.42314L8.10036 6.41314H7.97036L7.92036 6.40314H7.74036L7.70036 6.41314H7.65036L7.61036 6.42314L7.56036 6.43314L7.52036 6.44314H7.47036L7.43036 6.46314L7.39036 6.47314L7.34036 6.48314L7.30036 6.50314L7.26036 6.51314L7.22036 6.52314L7.18036 6.54314L7.14036 6.55314L7.10036 6.57314L7.06036 6.59314L7.02036 6.61314L6.98036 6.62314L6.94036 6.64314L6.90036 6.66314L6.86036 6.68314L6.82036 6.70314L6.78036 6.72314L6.75036 6.74314L6.71036 6.76314L6.67036 6.78314L6.64036 6.80314L6.60036 6.82314L6.57036 6.84314L6.53036 6.86314L6.50036 6.88314L6.46036 6.90314L6.43036 6.92314L6.23036 7.04314L6.20036 7.06314L6.16036 7.08314L6.13036 7.10314L6.10036 7.12314L6.07036 7.13314L6.04036 7.15314L6.01036 7.17314L5.98036 7.18314L5.95036 7.20314L5.92036 7.21314L5.89036 7.23314L5.87036 7.24314L5.84036 7.25314L5.81036 7.27314L5.78036 7.28314L5.76036 7.29314L5.73036 7.30314L5.70036 7.31314L5.68036 7.32314L5.65036 7.33314L5.63036 7.34314L5.60036 7.35314H5.59036L5.56036 7.36314L5.54036 7.37314H5.52036L5.49036 7.38314H5.44036L5.42036 7.39314H5.12036L5.09036 7.38314H5.07036L5.05036 7.37314L5.02036 7.36314H5.00036L4.98036 7.34314H4.95036L4.93036 7.33314L4.90036 7.32314L4.87036 7.31314L4.85036 7.30314L4.82036 7.29314L4.80036 7.27314H4.77036L4.74036 7.25314L4.71036 7.23314L4.68036 7.22314L4.65036 7.21314L4.62036 7.19314L4.60036 7.17314L4.57036 7.16314L4.54036 7.14314L4.51036 7.12314L4.47036 7.11314L4.44036 7.09314L4.41036 7.07314L4.40036 7.06314L3.98036 5.38314C3.94448 5.25896 3.8619 5.1535 3.74996 5.08889C3.63801 5.02428 3.50539 5.00552 3.37992 5.03657C3.25445 5.06761 3.14587 5.14604 3.07697 5.2554C3.00807 5.36476 2.9842 5.49656 3.01036 5.62314L5.01036 13.6231C5.03695 13.7307 5.09852 13.8264 5.1854 13.8952C5.27228 13.964 5.37955 14.0019 5.49036 14.0031H15.4904C15.6012 14.0019 15.7084 13.964 15.7953 13.8952C15.8822 13.8264 15.9438 13.7307 15.9704 13.6231L17.9704 5.62314C18.0008 5.49591 17.9801 5.36184 17.9128 5.24967C17.8455 5.13751 17.7369 5.05618 17.6104 5.02314V5.01314ZM15.1004 13.0031H5.88036L4.71036 8.30314L4.75036 8.32314L4.79036 8.33314L4.83036 8.34314L4.88036 8.35314L4.92036 8.36314L4.96036 8.37314H5.01036L5.05036 8.38314L5.10036 8.39314H5.23036L5.28036 8.40314H5.46036L5.49036 8.38314H5.54036L5.58036 8.37314H5.63036L5.67036 8.35314H5.71036L5.76036 8.33314L5.80036 8.32314L5.85036 8.31314L5.89036 8.30314L5.93036 8.28314L5.97036 8.27314L6.01036 8.25314L6.05036 8.24314L6.10036 8.22314L6.14036 8.20314L6.18036 8.19314L6.21036 8.17314L6.25036 8.15314L6.29036 8.13314L6.33036 8.11314L6.37036 8.09314L6.41036 8.07314L6.44036 8.05314L6.48036 8.03314L6.52036 8.01314L6.55036 7.99314L6.59036 7.97314L6.62036 7.95314L6.66036 7.93314L6.69036 7.91314L6.73036 7.89314L6.96036 7.75314L6.99036 7.73314L7.03036 7.71314L7.06036 7.70314L7.09036 7.68314L7.12036 7.66314L7.15036 7.64314L7.18036 7.62314L7.21036 7.61314L7.24036 7.59314L7.27036 7.58314L7.30036 7.56314L7.32036 7.55314L7.35036 7.54314L7.38036 7.52314L7.41036 7.51314L7.43036 7.50314L7.46036 7.49314L7.49036 7.48314L7.51036 7.47314L7.54036 7.46314L7.56036 7.45314L7.59036 7.44314H7.61036L7.63036 7.43314H7.66036L7.68036 7.42314L7.71036 7.41314H7.75036L7.77036 7.40314H8.07036L8.10036 7.41314H8.12036L8.14036 7.42314H8.17036L8.19036 7.44314H8.21036L8.24036 7.45314L8.27036 7.46314L8.29036 7.47314L8.32036 7.48314L8.34036 7.49314L8.37036 7.50314L8.40036 7.52314H8.42036L8.45036 7.54314L8.48036 7.55314L8.51036 7.57314L8.54036 7.58314L8.57036 7.60314L8.60036 7.61314L8.63036 7.63314L8.66036 7.65314L8.69036 7.67314L8.72036 7.68314L8.75036 7.70314L8.78036 7.72314L8.81036 7.74314L8.85036 7.76314L9.05036 7.88314L9.08036 7.90314L9.11036 7.92314L9.15036 7.94314L9.18036 7.96314L9.22036 7.98314L9.25036 8.00314L9.29036 8.02314L9.32036 8.04314L9.36036 8.06314L9.40036 8.08314L9.44036 8.10314L9.47036 8.12314L9.51036 8.14314L9.55036 8.15314L9.59036 8.17314L9.63036 8.19314L9.67036 8.21314L9.71036 8.22314L9.75036 8.24314L9.79036 8.26314L9.83036 8.27314L9.87036 8.28314L9.91036 8.30314L9.96036 8.31314L10.0004 8.32314L10.0404 8.33314L10.0804 8.34314L10.1304 8.35314L10.1704 8.36314H10.2204L10.2604 8.37314H10.3104L10.3504 8.38314H10.4404L10.4904 8.39314H10.6704L10.7104 8.38314H10.7604L10.8004 8.37314L10.8504 8.36314H10.8904L10.9304 8.34314H10.9804L11.0204 8.32314L11.0604 8.31314L11.1104 8.30314L11.1504 8.28314L11.1904 8.27314L11.2304 8.25314L11.2704 8.24314L11.3104 8.22314L11.3504 8.20314L11.3904 8.19314L11.4304 8.17314L11.4704 8.15314L11.5104 8.13314L11.5504 8.11314L11.5904 8.09314L11.6304 8.07314L11.6604 8.05314L11.7004 8.04314L11.7404 8.02314L11.7704 7.99314L11.8104 7.97314L11.8404 7.95314L11.8804 7.93314L11.9104 7.91314L11.9504 7.89314L11.9804 7.87314L12.0204 7.85314L12.1504 7.77314L12.1804 7.75314L12.2104 7.73314L12.2504 7.72314L12.2804 7.70314L12.3104 7.68314L12.3404 7.66314L12.3704 7.64314L12.4004 7.63314L12.4304 7.61314L12.4604 7.59314L12.4904 7.58314L12.5204 7.56314L12.5504 7.55314L12.5704 7.54314L12.6004 7.52314H12.6304L12.6504 7.50314L12.6804 7.49314L12.7004 7.48314L12.7304 7.47314L12.7504 7.46314L12.7804 7.45314H12.8004L12.8304 7.43314H12.8804L12.9004 7.42314H12.9304L12.9504 7.41314H12.9704L12.9904 7.40314H13.2904L13.3104 7.41314H13.3404L13.3604 7.42314H13.3804L13.4104 7.44314H13.4304L13.4504 7.45314L13.4804 7.46314L13.5004 7.47314L13.5304 7.48314L13.5604 7.49314L13.5804 7.50314L13.6104 7.51314L13.6404 7.53314L13.6604 7.54314L13.6904 7.55314L13.7204 7.57314L13.7504 7.58314L13.7804 7.60314L13.8104 7.61314L13.8304 7.63314L13.8604 7.65314L13.8904 7.66314L13.9304 7.68314L13.9604 7.70314H13.9704L14.0004 7.72314L14.0304 7.74314L14.0604 7.76314L14.1604 7.82314L14.2004 7.84314L14.2604 7.88314L14.3004 7.90314L14.3304 7.92314L14.3704 7.94314L14.4004 7.96314L14.4404 7.98314L14.4704 8.00314L14.5104 8.02314L14.5404 8.04314L14.5804 8.06314L14.6204 8.08314L14.6504 8.10314L14.6904 8.12314L14.7304 8.14314L14.7704 8.16314L14.8104 8.18314L14.8404 8.19314L14.8804 8.21314L14.9204 8.23314L14.9704 8.24314L15.0104 8.26314L15.0504 8.27314L15.0904 8.29314L15.1304 8.30314L15.1704 8.31314L15.2204 8.33314H15.2604L15.3004 8.35314H15.3404L15.3904 8.36314L15.4304 8.37314H15.5204L15.5704 8.38314H15.6604L15.7104 8.39314H15.8904L15.9304 8.38314H15.9804L16.0204 8.37314H16.0704L16.1104 8.35314H16.1504L16.2004 8.34314L16.2404 8.32314H16.2604L15.0904 12.9931L15.1004 13.0031Z" fill="black"/>
</svg>
