<svg width="235" height="58" viewBox="0 0 235 58" fill="none" xmlns="http://www.w3.org/2000/svg">
<path opacity="0.1" d="M39.68 9.72C39.68 9.98666 39.5733 10.2267 39.36 10.44C39.2 10.6 38.9867 10.68 38.72 10.68H12.56C12.2933 10.68 12.16 10.8133 12.16 11.08V23.48C12.16 23.7467 12.2933 23.88 12.56 23.88H29.76C30.0267 23.88 30.24 23.9867 30.4 24.2C30.6133 24.36 30.72 24.5733 30.72 24.84V32.6C30.72 32.8667 30.6133 33.1067 30.4 33.32C30.24 33.48 30.0267 33.56 29.76 33.56H12.56C12.2933 33.56 12.16 33.6933 12.16 33.96V56.04C12.16 56.3067 12.0533 56.5467 11.84 56.76C11.68 56.92 11.4667 57 11.2 57H1.84C1.57333 57 1.33333 56.92 1.12 56.76C0.96 56.5467 0.88 56.3067 0.88 56.04V1.96C0.88 1.69333 0.96 1.48 1.12 1.32C1.33333 1.10666 1.57333 0.999996 1.84 0.999996H38.72C38.9867 0.999996 39.2 1.10666 39.36 1.32C39.5733 1.48 39.68 1.69333 39.68 1.96V9.72ZM65.9656 57.64C61.859 57.64 58.2323 56.84 55.0856 55.24C51.9923 53.64 49.5656 51.4 47.8056 48.52C46.099 45.5867 45.2456 42.2267 45.2456 38.44V1.96C45.2456 1.69333 45.3256 1.48 45.4856 1.32C45.699 1.10666 45.939 0.999996 46.2056 0.999996H55.5656C55.8323 0.999996 56.0456 1.10666 56.2056 1.32C56.419 1.48 56.5256 1.69333 56.5256 1.96V38.52C56.5256 41.3467 57.379 43.64 59.0856 45.4C60.8456 47.1067 63.139 47.96 65.9656 47.96C68.7923 47.96 71.059 47.1067 72.7656 45.4C74.5256 43.64 75.4056 41.3467 75.4056 38.52V1.96C75.4056 1.69333 75.4856 1.48 75.6456 1.32C75.859 1.10666 76.099 0.999996 76.3656 0.999996H85.7256C85.9923 0.999996 86.2056 1.10666 86.3656 1.32C86.579 1.48 86.6856 1.69333 86.6856 1.96V38.44C86.6856 42.2267 85.8056 45.5867 84.0456 48.52C82.339 51.4 79.9123 53.64 76.7656 55.24C73.6723 56.84 70.0723 57.64 65.9656 57.64ZM128.118 1.96C128.118 1.69333 128.198 1.48 128.358 1.32C128.571 1.10666 128.811 0.999996 129.078 0.999996H138.438C138.705 0.999996 138.918 1.10666 139.078 1.32C139.291 1.48 139.398 1.69333 139.398 1.96V56.04C139.398 56.3067 139.291 56.5467 139.078 56.76C138.918 56.92 138.705 57 138.438 57H129.398C128.865 57 128.491 56.7867 128.278 56.36L107.558 22.12C107.451 21.96 107.345 21.9067 107.238 21.96C107.131 21.96 107.078 22.0667 107.078 22.28L107.238 56.04C107.238 56.3067 107.131 56.5467 106.918 56.76C106.758 56.92 106.545 57 106.278 57H96.9181C96.6515 57 96.4115 56.92 96.1981 56.76C96.0381 56.5467 95.9581 56.3067 95.9581 56.04V1.96C95.9581 1.69333 96.0381 1.48 96.1981 1.32C96.4115 1.10666 96.6515 0.999996 96.9181 0.999996H105.958C106.491 0.999996 106.865 1.21333 107.078 1.64L127.718 35.72C127.825 35.88 127.931 35.96 128.038 35.96C128.145 35.9067 128.198 35.7733 128.198 35.56L128.118 1.96ZM187.801 0.999996C188.068 0.999996 188.281 1.10666 188.441 1.32C188.655 1.48 188.761 1.69333 188.761 1.96V9.8C188.761 10.0667 188.655 10.3067 188.441 10.52C188.281 10.68 188.068 10.76 187.801 10.76H173.481C173.215 10.76 173.081 10.8933 173.081 11.16V56.04C173.081 56.3067 172.975 56.5467 172.761 56.76C172.601 56.92 172.388 57 172.121 57H162.761C162.495 57 162.255 56.92 162.041 56.76C161.881 56.5467 161.801 56.3067 161.801 56.04V11.16C161.801 10.8933 161.668 10.76 161.401 10.76H147.481C147.215 10.76 146.975 10.68 146.761 10.52C146.601 10.3067 146.521 10.0667 146.521 9.8V1.96C146.521 1.69333 146.601 1.48 146.761 1.32C146.975 1.10666 147.215 0.999996 147.481 0.999996H187.801ZM213.613 57.88C209.453 57.88 205.773 57.0267 202.573 55.32C199.426 53.6133 196.973 51.24 195.213 48.2C193.453 45.1067 192.573 41.56 192.573 37.56V20.44C192.573 16.4933 193.453 13 195.213 9.96C196.973 6.92 199.426 4.57333 202.573 2.92C205.773 1.21333 209.453 0.36 213.613 0.36C217.826 0.36 221.506 1.21333 224.653 2.92C227.853 4.57333 230.333 6.92 232.093 9.96C233.853 13 234.733 16.4933 234.733 20.44V37.56C234.733 41.56 233.853 45.1067 232.093 48.2C230.333 51.2933 227.853 53.6933 224.653 55.4C221.506 57.0533 217.826 57.88 213.613 57.88ZM213.613 48.2C216.546 48.2 218.919 47.2667 220.733 45.4C222.546 43.5333 223.453 41.0533 223.453 37.96V20.36C223.453 17.2667 222.546 14.7867 220.733 12.92C218.973 11 216.599 10.04 213.613 10.04C210.679 10.04 208.306 11 206.493 12.92C204.733 14.7867 203.853 17.2667 203.853 20.36V37.96C203.853 41.0533 204.733 43.5333 206.493 45.4C208.306 47.2667 210.679 48.2 213.613 48.2Z" fill="black"/>
</svg>
