<svg width="93" height="24" viewBox="0 0 93 24" fill="none" xmlns="http://www.w3.org/2000/svg">
<path opacity="0.1" d="M15.7224 4.64725C15.7224 4.7523 15.6804 4.84685 15.5964 4.93089C15.5333 4.99392 15.4493 5.02543 15.3442 5.02543H5.03877C4.93372 5.02543 4.8812 5.07796 4.8812 5.18301V10.0679C4.8812 10.1729 4.93372 10.2254 5.03877 10.2254H11.8145C11.9196 10.2254 12.0036 10.2675 12.0667 10.3515C12.1507 10.4145 12.1927 10.4986 12.1927 10.6036V13.6606C12.1927 13.7656 12.1507 13.8602 12.0667 13.9442C12.0036 14.0073 11.9196 14.0388 11.8145 14.0388H5.03877C4.93372 14.0388 4.8812 14.0913 4.8812 14.1963V22.8945C4.8812 22.9996 4.83918 23.0941 4.75514 23.1782C4.69211 23.2412 4.60807 23.2727 4.50302 23.2727H0.815743C0.710692 23.2727 0.616147 23.2412 0.532107 23.1782C0.469076 23.0941 0.437561 22.9996 0.437561 22.8945V1.59028C0.437561 1.48523 0.469076 1.40119 0.532107 1.33816C0.616147 1.25412 0.710692 1.2121 0.815743 1.2121H15.3442C15.4493 1.2121 15.5333 1.25412 15.5964 1.33816C15.6804 1.40119 15.7224 1.48523 15.7224 1.59028V4.64725ZM26.0774 23.5248C24.4596 23.5248 23.0309 23.2097 21.7913 22.5794C20.5727 21.9491 19.6167 21.0666 18.9234 19.9321C18.2511 18.7765 17.9149 17.4529 17.9149 15.9612V1.59028C17.9149 1.48523 17.9464 1.40119 18.0095 1.33816C18.0935 1.25412 18.1881 1.2121 18.2931 1.2121H21.9804C22.0854 1.2121 22.1695 1.25412 22.2325 1.33816C22.3165 1.40119 22.3586 1.48523 22.3586 1.59028V15.9927C22.3586 17.1062 22.6947 18.0097 23.3671 18.703C24.0604 19.3753 24.9638 19.7115 26.0774 19.7115C27.1909 19.7115 28.0838 19.3753 28.7561 18.703C29.4495 18.0097 29.7961 17.1062 29.7961 15.9927V1.59028C29.7961 1.48523 29.8277 1.40119 29.8907 1.33816C29.9747 1.25412 30.0693 1.2121 30.1743 1.2121H33.8616C33.9666 1.2121 34.0507 1.25412 34.1137 1.33816C34.1978 1.40119 34.2398 1.48523 34.2398 1.59028V15.9612C34.2398 17.4529 33.8931 18.7765 33.1998 19.9321C32.5275 21.0666 31.5715 21.9491 30.3319 22.5794C29.1133 23.2097 27.6951 23.5248 26.0774 23.5248ZM50.5617 1.59028C50.5617 1.48523 50.5932 1.40119 50.6562 1.33816C50.7403 1.25412 50.8348 1.2121 50.9399 1.2121H54.6271C54.7322 1.2121 54.8162 1.25412 54.8792 1.33816C54.9633 1.40119 55.0053 1.48523 55.0053 1.59028V22.8945C55.0053 22.9996 54.9633 23.0941 54.8792 23.1782C54.8162 23.2412 54.7322 23.2727 54.6271 23.2727H51.0659C50.8558 23.2727 50.7087 23.1887 50.6247 23.0206L42.4623 9.5321C42.4203 9.46907 42.3782 9.44806 42.3362 9.46907C42.2942 9.46907 42.2732 9.51109 42.2732 9.59513L42.3362 22.8945C42.3362 22.9996 42.2942 23.0941 42.2102 23.1782C42.1471 23.2412 42.0631 23.2727 41.958 23.2727H38.2708C38.1657 23.2727 38.0712 23.2412 37.9871 23.1782C37.9241 23.0941 37.8926 22.9996 37.8926 22.8945V1.59028C37.8926 1.48523 37.9241 1.40119 37.9871 1.33816C38.0712 1.25412 38.1657 1.2121 38.2708 1.2121H41.832C42.0421 1.2121 42.1891 1.29614 42.2732 1.46422L50.4041 14.8897C50.4461 14.9527 50.4881 14.9842 50.5302 14.9842C50.5722 14.9632 50.5932 14.9107 50.5932 14.8266L50.5617 1.59028ZM74.0732 1.2121C74.1783 1.2121 74.2623 1.25412 74.3253 1.33816C74.4094 1.40119 74.4514 1.48523 74.4514 1.59028V4.67876C74.4514 4.78381 74.4094 4.87836 74.3253 4.9624C74.2623 5.02543 74.1783 5.05695 74.0732 5.05695H68.432C68.3269 5.05695 68.2744 5.10947 68.2744 5.21452V22.8945C68.2744 22.9996 68.2324 23.0941 68.1484 23.1782C68.0853 23.2412 68.0013 23.2727 67.8962 23.2727H64.209C64.1039 23.2727 64.0094 23.2412 63.9253 23.1782C63.8623 23.0941 63.8308 22.9996 63.8308 22.8945V5.21452C63.8308 5.10947 63.7783 5.05695 63.6732 5.05695H58.1896C58.0845 5.05695 57.99 5.02543 57.9059 4.9624C57.8429 4.87836 57.8114 4.78381 57.8114 4.67876V1.59028C57.8114 1.48523 57.8429 1.40119 57.9059 1.33816C57.99 1.25412 58.0845 1.2121 58.1896 1.2121H74.0732ZM84.2413 23.6194C82.6025 23.6194 81.1528 23.2832 79.8922 22.6109C78.6526 21.9386 77.6861 21.0036 76.9928 19.806C76.2995 18.5875 75.9528 17.1903 75.9528 15.6145V8.87028C75.9528 7.31553 76.2995 5.93937 76.9928 4.7418C77.6861 3.54422 78.6526 2.61977 79.8922 1.96846C81.1528 1.29614 82.6025 0.959977 84.2413 0.959977C85.9011 0.959977 87.3508 1.29614 88.5904 1.96846C89.851 2.61977 90.8279 3.54422 91.5213 4.7418C92.2146 5.93937 92.5613 7.31553 92.5613 8.87028V15.6145C92.5613 17.1903 92.2146 18.5875 91.5213 19.806C90.8279 21.0246 89.851 21.9701 88.5904 22.6424C87.3508 23.2937 85.9011 23.6194 84.2413 23.6194ZM84.2413 19.806C85.3968 19.806 86.3318 19.4384 87.0461 18.703C87.7605 17.9677 88.1176 16.9907 88.1176 15.7721V8.83876C88.1176 7.62018 87.7605 6.64321 87.0461 5.90786C86.3528 5.15149 85.4178 4.77331 84.2413 4.77331C83.0857 4.77331 82.1508 5.15149 81.4364 5.90786C80.7431 6.64321 80.3964 7.62018 80.3964 8.83876V15.7721C80.3964 16.9907 80.7431 17.9677 81.4364 18.703C82.1508 19.4384 83.0857 19.806 84.2413 19.806Z" fill="black"/>
</svg>
