<svg width="23" height="21" viewBox="0 0 23 21" fill="none" xmlns="http://www.w3.org/2000/svg">
<path d="M19.7709 8.0625C19.0677 8.0625 18.4584 8.34375 17.9896 8.8125C16.3021 7.64062 14.0521 6.89062 11.5677 6.84375L12.8802 0.984375L17.0052 1.92188C17.0052 2.90625 17.8021 3.75 18.8334 3.75C19.8646 3.75 20.7084 2.90625 20.7084 1.875C20.7084 0.84375 19.8646 0 18.8334 0C18.1302 0 17.474 0.46875 17.1927 1.03125L12.599 0.046875C12.3646 -0.046875 12.1771 0.140625 12.0834 0.375L10.6771 6.79688C8.19275 6.9375 5.94275 7.6875 4.30212 8.8125C3.83337 8.34375 3.17712 8.0625 2.474 8.0625C-0.104129 8.0625 -0.994754 11.5781 1.39587 12.75C1.30212 13.125 1.30212 13.5 1.30212 13.9219C1.30212 17.8594 5.70837 21 11.1459 21C16.5834 21 21.0365 17.8594 21.0365 13.9219C21.0365 13.5 20.9896 13.125 20.8959 12.75C23.2396 11.5312 22.349 8.0625 19.7709 8.0625ZM5.19275 12.9844C5.19275 11.9531 6.0365 11.1562 7.06775 11.1562C8.05212 11.1562 8.89587 11.9531 8.89587 12.9844C8.89587 14.0156 8.05212 14.8594 7.06775 14.8594C6.0365 14.8594 5.19275 14.0156 5.19275 12.9844ZM15.224 17.3906C13.5365 19.0781 8.70837 19.0781 7.02087 17.3906C6.83337 17.2031 6.83337 16.9219 7.02087 16.7344C7.1615 16.5938 7.44275 16.5938 7.63025 16.7344C8.94275 18.0938 13.2552 18.0938 14.6146 16.7344C14.7552 16.5938 15.0834 16.5938 15.224 16.7344C15.4115 16.9219 15.4115 17.2031 15.224 17.3906ZM15.1771 14.8594C14.1927 14.8594 13.349 14.0156 13.349 12.9844C13.349 11.9531 14.1927 11.1562 15.1771 11.1562C16.2084 11.1562 17.0521 11.9531 17.0521 12.9844C17.0521 14.0156 16.2084 14.8594 15.1771 14.8594Z" fill="white"/>
</svg>
