<?xml version="1.0" standalone="no"?><svg xmlns="http://www.w3.org/2000/svg" viewBox="0 0 1440 320"><path fill="#000000" fill-opacity="1" d="M0,224L6.2,234.7C12.3,245,25,267,37,234.7C49.2,203,62,117,74,80C86.2,43,98,53,111,53.3C123.1,53,135,43,148,85.3C160,128,172,224,185,261.3C196.9,299,209,277,222,229.3C233.8,181,246,107,258,106.7C270.8,107,283,181,295,229.3C307.7,277,320,299,332,298.7C344.6,299,357,277,369,234.7C381.5,192,394,128,406,96C418.5,64,431,64,443,80C455.4,96,468,128,480,117.3C492.3,107,505,53,517,69.3C529.2,85,542,171,554,218.7C566.2,267,578,277,591,272C603.1,267,615,245,628,234.7C640,224,652,224,665,234.7C676.9,245,689,267,702,234.7C713.8,203,726,117,738,90.7C750.8,64,763,96,775,90.7C787.7,85,800,43,812,42.7C824.6,43,837,85,849,106.7C861.5,128,874,128,886,138.7C898.5,149,911,171,923,176C935.4,181,948,171,960,138.7C972.3,107,985,53,997,53.3C1009.2,53,1022,107,1034,122.7C1046.2,139,1058,117,1071,117.3C1083.1,117,1095,139,1108,149.3C1120,160,1132,160,1145,181.3C1156.9,203,1169,245,1182,256C1193.8,267,1206,245,1218,208C1230.8,171,1243,117,1255,96C1267.7,75,1280,85,1292,80C1304.6,75,1317,53,1329,69.3C1341.5,85,1354,139,1366,160C1378.5,181,1391,171,1403,138.7C1415.4,107,1428,53,1434,26.7L1440,0L1440,0L1433.8,0C1427.7,0,1415,0,1403,0C1390.8,0,1378,0,1366,0C1353.8,0,1342,0,1329,0C1316.9,0,1305,0,1292,0C1280,0,1268,0,1255,0C1243.1,0,1231,0,1218,0C1206.2,0,1194,0,1182,0C1169.2,0,1157,0,1145,0C1132.3,0,1120,0,1108,0C1095.4,0,1083,0,1071,0C1058.5,0,1046,0,1034,0C1021.5,0,1009,0,997,0C984.6,0,972,0,960,0C947.7,0,935,0,923,0C910.8,0,898,0,886,0C873.8,0,862,0,849,0C836.9,0,825,0,812,0C800,0,788,0,775,0C763.1,0,751,0,738,0C726.2,0,714,0,702,0C689.2,0,677,0,665,0C652.3,0,640,0,628,0C615.4,0,603,0,591,0C578.5,0,566,0,554,0C541.5,0,529,0,517,0C504.6,0,492,0,480,0C467.7,0,455,0,443,0C430.8,0,418,0,406,0C393.8,0,382,0,369,0C356.9,0,345,0,332,0C320,0,308,0,295,0C283.1,0,271,0,258,0C246.2,0,234,0,222,0C209.2,0,197,0,185,0C172.3,0,160,0,148,0C135.4,0,123,0,111,0C98.5,0,86,0,74,0C61.5,0,49,0,37,0C24.6,0,12,0,6,0L0,0Z"></path></svg>