<svg width="13" height="12" viewBox="0 0 13 12" fill="none" xmlns="http://www.w3.org/2000/svg">
<path d="M8.08704 0.565222H4.60468C2.41314 0.531643 0.605985 2.23294 0.560089 4.36516V7.63904C0.600248 9.77685 2.40741 11.4726 4.59894 11.439H8.08131C10.2728 11.4781 12.08 9.77685 12.1202 7.63904V4.35956C12.1087 2.24973 10.3474 0.548432 8.19031 0.559625C8.15589 0.565222 8.12147 0.565222 8.08704 0.565222ZM8.82712 6.02168C8.87875 7.37041 7.80019 8.50647 6.41184 8.55684C5.02922 8.60721 3.86461 7.55509 3.81297 6.20077C3.76134 4.84645 4.8399 3.71598 6.22825 3.66561C6.25694 3.66561 6.29136 3.66561 6.32004 3.66561C7.67398 3.63763 8.79843 4.68415 8.82712 6.0049V6.02168ZM9.57293 3.66561C9.22871 3.66002 8.95907 3.3802 8.96481 3.04441C8.97054 2.70863 9.25739 2.4456 9.60161 2.4512C9.94583 2.4568 10.2155 2.73661 10.2097 3.0724C10.204 3.39699 9.93436 3.66002 9.60161 3.66561H9.57293Z" fill="#E65F33"/>
</svg>
