<svg width="12" height="10" viewBox="0 0 12 10" fill="none" xmlns="http://www.w3.org/2000/svg">
<path d="M11.3071 1.30697C10.8991 1.48377 10.4775 1.60617 10.0287 1.66057C10.4911 1.38857 10.8447 0.95337 11.0079 0.422967C10.5727 0.681368 10.0967 0.858169 9.59352 0.96697C9.18552 0.531767 8.60071 0.259766 7.96151 0.259766C6.7239 0.259766 5.73109 1.26617 5.73109 2.49018C5.73109 2.66698 5.74469 2.83018 5.7855 2.99338C3.93588 2.91178 2.30387 2.01418 1.20227 0.667768C0.413463 2.08218 1.29747 3.25178 1.88227 3.64619C1.52867 3.64619 1.17507 3.53739 0.875866 3.37418C0.875866 4.47579 1.65107 5.387 2.65748 5.591C2.43987 5.659 1.95027 5.6998 1.65107 5.6318C1.93667 6.5158 2.76628 7.16861 3.73188 7.18221C2.97028 7.78061 1.85507 8.25661 0.427063 8.10701C1.41987 8.74622 2.58948 9.11342 3.85428 9.11342C7.96151 9.11342 10.1919 5.7134 10.1919 2.77578C10.1919 2.68058 10.1919 2.58538 10.1783 2.49018C10.6407 2.15018 11.0215 1.75577 11.3071 1.30697Z" fill="#E65F33"/>
</svg>
